<svg width="494" height="144" viewBox="0 0 494 144" fill="none" xmlns="http://www.w3.org/2000/svg">
<path d="M52.8 38.032V54.928H26.112V64.336H45.312V80.368H26.112V106H4.8V38.032H52.8ZM112.435 78.448C112.435 79.92 112.339 81.328 112.147 82.672H77.8748C78.1948 87.344 80.1468 89.68 83.7308 89.68C86.0348 89.68 87.6988 88.624 88.7228 86.512H111.283C110.515 90.352 108.883 93.808 106.387 96.88C103.955 99.888 100.851 102.288 97.0748 104.08C93.3628 105.808 89.2668 106.672 84.7868 106.672C79.4108 106.672 74.6108 105.552 70.3868 103.312C66.2268 101.072 62.9628 97.872 60.5948 93.712C58.2908 89.488 57.1388 84.56 57.1388 78.928C57.1388 73.296 58.2908 68.4 60.5948 64.24C62.9628 60.016 66.2268 56.784 70.3868 54.544C74.6108 52.304 79.4108 51.184 84.7868 51.184C90.1628 51.184 94.9308 52.304 99.0908 54.544C103.315 56.72 106.579 59.856 108.883 63.952C111.251 68.048 112.435 72.88 112.435 78.448ZM90.8348 73.36C90.8348 71.568 90.2588 70.224 89.1068 69.328C87.9548 68.368 86.5148 67.888 84.7868 67.888C81.0108 67.888 78.8028 69.712 78.1628 73.36H90.8348ZM168.608 106.672C162.208 106.672 156.32 105.168 150.944 102.16C145.632 99.152 141.408 94.992 138.272 89.68C135.136 84.368 133.568 78.384 133.568 71.728C133.568 65.072 135.136 59.088 138.272 53.776C141.408 48.464 145.632 44.336 150.944 41.392C156.32 38.384 162.208 36.88 168.608 36.88C175.008 36.88 180.864 38.384 186.176 41.392C191.488 44.336 195.68 48.464 198.752 53.776C201.888 59.088 203.456 65.072 203.456 71.728C203.456 78.384 201.888 84.368 198.752 89.68C195.68 94.992 191.456 99.152 186.08 102.16C180.768 105.168 174.944 106.672 168.608 106.672ZM168.608 86.8C172.832 86.8 176.096 85.456 178.4 82.768C180.704 80.016 181.856 76.336 181.856 71.728C181.856 67.056 180.704 63.376 178.4 60.688C176.096 57.936 172.832 56.56 168.608 56.56C164.32 56.56 161.024 57.936 158.72 60.688C156.416 63.376 155.264 67.056 155.264 71.728C155.264 76.336 156.416 80.016 158.72 82.768C161.024 85.456 164.32 86.8 168.608 86.8Z" fill="#F74C00"/>
<path d="M292.384 95.728H269.728L266.368 106H244L268.864 38.032H293.44L318.208 106H295.744L292.384 95.728ZM287.2 79.696L281.056 60.784L274.912 79.696H287.2ZM380.362 51.856V106H359.05V97.744C357.386 100.304 355.146 102.384 352.33 103.984C349.578 105.584 346.282 106.384 342.442 106.384C336.234 106.384 331.37 104.304 327.85 100.144C324.394 95.984 322.666 90.352 322.666 83.248V51.856H343.882V80.56C343.882 83.12 344.554 85.168 345.898 86.704C347.306 88.176 349.162 88.912 351.466 88.912C353.834 88.912 355.69 88.176 357.034 86.704C358.378 85.168 359.05 83.12 359.05 80.56V51.856H380.362ZM423.684 87.856V106H415.62C400.772 106 393.348 98.608 393.348 83.824V69.616H386.628V51.856H393.348V38.8H414.66V51.856H423.492V69.616H414.66V84.208C414.66 85.488 414.948 86.416 415.524 86.992C416.164 87.568 417.188 87.856 418.596 87.856H423.684ZM469.72 51.472C475.928 51.472 480.76 53.552 484.216 57.712C487.736 61.872 489.496 67.504 489.496 74.608V106H468.28V77.296C468.28 74.736 467.576 72.72 466.168 71.248C464.824 69.712 463 68.944 460.696 68.944C458.328 68.944 456.472 69.712 455.128 71.248C453.784 72.72 453.112 74.736 453.112 77.296V106H431.8V34.96H453.112V60.112C454.776 57.552 456.984 55.472 459.736 53.872C462.552 52.272 465.88 51.472 469.72 51.472Z" fill="white"/>
<path d="M116.672 119.752C118.816 118.152 120.512 116.704 121.76 115.408C123.008 114.096 123.632 112.872 123.632 111.736C123.632 111.352 123.544 111.056 123.368 110.848C123.208 110.64 122.992 110.536 122.72 110.536C122.4 110.536 122.144 110.704 121.952 111.04C121.776 111.36 121.712 111.856 121.76 112.528H116.6C116.648 111.04 116.968 109.816 117.56 108.856C118.168 107.896 118.952 107.192 119.912 106.744C120.872 106.296 121.928 106.072 123.08 106.072C125.128 106.072 126.624 106.568 127.568 107.56C128.528 108.536 129.008 109.792 129.008 111.328C129.008 112.944 128.488 114.464 127.448 115.888C126.424 117.296 125.136 118.488 123.584 119.464H129.08V123.76H116.672V119.752ZM200.002 111.952C200.05 110.048 200.602 108.592 201.658 107.584C202.73 106.576 204.242 106.072 206.194 106.072C207.458 106.072 208.538 106.288 209.434 106.72C210.33 107.152 211.002 107.736 211.45 108.472C211.914 109.208 212.146 110.04 212.146 110.968C212.146 112.088 211.882 112.968 211.354 113.608C210.826 114.232 210.234 114.656 209.578 114.88V114.976C211.498 115.696 212.458 117.032 212.458 118.984C212.458 120.008 212.218 120.912 211.738 121.696C211.258 122.48 210.57 123.088 209.674 123.52C208.794 123.952 207.746 124.168 206.53 124.168C204.45 124.168 202.818 123.672 201.634 122.68C200.45 121.688 199.842 120.136 199.81 118.024H204.994C204.962 118.6 205.042 119.04 205.234 119.344C205.442 119.632 205.794 119.776 206.29 119.776C206.578 119.776 206.818 119.672 207.01 119.464C207.202 119.24 207.298 118.952 207.298 118.6C207.298 118.152 207.146 117.816 206.842 117.592C206.554 117.352 206.058 117.232 205.354 117.232H204.466V112.936H205.33C206.418 113 206.962 112.568 206.962 111.64C206.962 111.24 206.874 110.944 206.698 110.752C206.538 110.56 206.33 110.464 206.074 110.464C205.482 110.464 205.186 110.96 205.186 111.952H200.002Z" fill="#F74C00"/>
</svg>
